HIERARCHY
ROOT Hips
{
  OFFSET 5.72205e-005 65.662 3.42586
  CHANNELS 6 Xposition Yposition Zposition Zrotation Xrotation Yrotation
  JOINT Chest
  {
    OFFSET 0 8.7983 -4.7612
    CHANNELS 3 Zrotation Xrotation Yrotation
    JOINT Chest2
    {
      OFFSET 0 8.0291 0.4195
      CHANNELS 3 Zrotation Xrotation Yrotation
      JOINT Chest3
      {
        OFFSET 0 9.9351 -2.2114
        CHANNELS 3 Zrotation Xrotation Yrotation
        JOINT Neck
        {
          OFFSET 0 22.3885 -0.4656
          CHANNELS 3 Zrotation Xrotation Yrotation
          JOINT Head
          {
            OFFSET -0.0001 12.643 3.4389
            CHANNELS 3 Zrotation Xrotation Yrotation
            End Site
            {
              OFFSET 0.0001 17.6655 0.5274
            }
          }
        }
        JOINT LeftCollar
        {
          OFFSET 2.2603 21.606 7.4023
          CHANNELS 3 Zrotation Xrotation Yrotation
          JOINT LeftShoulder
          {
            OFFSET 13.5163 -1.1332 -5.0146
            CHANNELS 3 Zrotation Xrotation Yrotation
            JOINT LeftElbow
            {
              OFFSET -0.0995 -28.05 -0.2431
              CHANNELS 3 Zrotation Xrotation Yrotation
              JOINT LeftWrist
              {
                OFFSET 0.0679 -23.3996 -0.1402
                CHANNELS 3 Zrotation Xrotation Yrotation
                JOINT LeftFinger1
                {
                  OFFSET 0.7932 -9.069 2.5189
                  CHANNELS 3 Zrotation Xrotation Yrotation
                  JOINT LeftFinger11
                  {
                    OFFSET -0.8272 -3.3923 0.5977
                    CHANNELS 3 Zrotation Xrotation Yrotation
                    JOINT LeftFinger12
                    {
                      OFFSET -0.5649 -2.3158 0.4082
                      CHANNELS 3 Zrotation Xrotation Yrotation
                      End Site
                      {
                        OFFSET -0.4919 -1.6479 0.2673
                      }
                    }
                  }
                }
                JOINT LeftFinger2
                {
                  OFFSET 0.9159 -9.2044 0.2193
                  CHANNELS 3 Zrotation Xrotation Yrotation
                  JOINT LeftFinger21
                  {
                    OFFSET 0.0117 -4.1944 -0.0248
                    CHANNELS 3 Zrotation Xrotation Yrotation
                    JOINT LeftFinger22
                    {
                      OFFSET 0.0071 -2.3249 -0.0142
                      CHANNELS 3 Zrotation Xrotation Yrotation
                      End Site
                      {
                        OFFSET -0.1475 -2.0882 0.0028
                      }
                    }
                  }
                }
                JOINT LeftFinger3
                {
                  OFFSET 0.6113 -8.7231 -2.0637
                  CHANNELS 3 Zrotation Xrotation Yrotation
                  JOINT LeftFinger31
                  {
                    OFFSET -0.1927 -3.8059 -0.2383
                    CHANNELS 3 Zrotation Xrotation Yrotation
                    JOINT LeftFinger32
                    {
                      OFFSET -0.1091 -2.1688 -0.1362
                      CHANNELS 3 Zrotation Xrotation Yrotation
                      End Site
                      {
                        OFFSET -0.2358 -1.9176 -0.0906
                      }
                    }
                  }
                }
                JOINT LeftFinger4
                {
                  OFFSET -0.6151 -8.0947 -3.5641
                  CHANNELS 3 Zrotation Xrotation Yrotation
                  JOINT LeftFinger41
                  {
                    OFFSET -0.4882 -2.341 -0.6462
                    CHANNELS 3 Zrotation Xrotation Yrotation
                    JOINT LeftFinger42
                    {
                      OFFSET -0.3575 -1.7167 -0.4742
                      CHANNELS 3 Zrotation Xrotation Yrotation
                      End Site
                      {
                        OFFSET -0.4187 -1.5237 -0.3496
                      }
                    }
                  }
                }
                JOINT LeftFinger0
                {
                  OFFSET -1.42 -1.8761 1.4223
                  CHANNELS 3 Zrotation Xrotation Yrotation
                  JOINT LeftFinger01
                  {
                    OFFSET -1.1471 -3.4929 2.6334
                    CHANNELS 3 Zrotation Xrotation Yrotation
                    JOINT LeftFinger02
                    {
                      OFFSET -0.823 -2.3 1.6571
                      CHANNELS 3 Zrotation Xrotation Yrotation
                      End Site
                      {
                        OFFSET -0.5822 -1.6914 1.1582
                      }
                    }
                  }
                }
              }
            }
          }
        }
        JOINT RightCollar
        {
          OFFSET -2.2603 21.606 7.4023
          CHANNELS 3 Zrotation Xrotation Yrotation
          JOINT RightShoulder
          {
            OFFSET -13.5187 -1.1334 -5.0155
            CHANNELS 3 Zrotation Xrotation Yrotation
            JOINT RightElbow
            {
              OFFSET 0.0994 -28.0499 -0.2431
              CHANNELS 3 Zrotation Xrotation Yrotation
              JOINT RightWrist
              {
                OFFSET -0.0679 -23.3996 -0.1402
                CHANNELS 3 Zrotation Xrotation Yrotation
                JOINT RightFinger1
                {
                  OFFSET -0.7932 -9.0691 2.5189
                  CHANNELS 3 Zrotation Xrotation Yrotation
                  JOINT RightFinger11
                  {
                    OFFSET 0.8272 -3.3923 0.5977
                    CHANNELS 3 Zrotation Xrotation Yrotation
                    JOINT RightFinger12
                    {
                      OFFSET 0.565 -2.3158 0.4082
                      CHANNELS 3 Zrotation Xrotation Yrotation
                      End Site
                      {
                        OFFSET 0.4919 -1.6479 0.2673
                      }
                    }
                  }
                }
                JOINT RightFinger2
                {
                  OFFSET -0.916 -9.2044 0.2193
                  CHANNELS 3 Zrotation Xrotation Yrotation
                  JOINT RightFinger21
                  {
                    OFFSET -0.0117 -4.1944 -0.0248
                    CHANNELS 3 Zrotation Xrotation Yrotation
                    JOINT RightFinger22
                    {
                      OFFSET -0.0071 -2.3249 -0.0142
                      CHANNELS 3 Zrotation Xrotation Yrotation
                      End Site
                      {
                        OFFSET 0.1475 -2.0882 0.0028
                      }
                    }
                  }
                }
                JOINT RightFinger3
                {
                  OFFSET -0.6113 -8.7231 -2.0637
                  CHANNELS 3 Zrotation Xrotation Yrotation
                  JOINT RightFinger31
                  {
                    OFFSET 0.1927 -3.8059 -0.2383
                    CHANNELS 3 Zrotation Xrotation Yrotation
                    JOINT RightFinger32
                    {
                      OFFSET 0.1091 -2.1688 -0.1362
                      CHANNELS 3 Zrotation Xrotation Yrotation
                      End Site
                      {
                        OFFSET 0.2358 -1.9176 -0.0906
                      }
                    }
                  }
                }
                JOINT RightFinger4
                {
                  OFFSET 0.6151 -8.0947 -3.564
                  CHANNELS 3 Zrotation Xrotation Yrotation
                  JOINT RightFinger41
                  {
                    OFFSET 0.4882 -2.341 -0.6462
                    CHANNELS 3 Zrotation Xrotation Yrotation
                    JOINT RightFinger42
                    {
                      OFFSET 0.3574 -1.7166 -0.4742
                      CHANNELS 3 Zrotation Xrotation Yrotation
                      End Site
                      {
                        OFFSET 0.4187 -1.5237 -0.3496
                      }
                    }
                  }
                }
                JOINT RightFinger0
                {
                  OFFSET 1.4199 -1.8761 1.4221
                  CHANNELS 3 Zrotation Xrotation Yrotation
                  JOINT RightFinger01
                  {
                    OFFSET 1.1472 -3.4929 2.6336
                    CHANNELS 3 Zrotation Xrotation Yrotation
                    JOINT RightFinger02
                    {
                      OFFSET 0.8229 -2.3 1.6571
                      CHANNELS 3 Zrotation Xrotation Yrotation
                      End Site
                      {
                        OFFSET 0.5822 -1.6914 1.1582
                      }
                    }
                  }
                }
              }
            }
          }
        }
      }
    }
  }
  JOINT RightHip
  {
    OFFSET -9.412 3.9771 -0.7758
    CHANNELS 3 Zrotation Xrotation Yrotation
    JOINT RightKnee
    {
      OFFSET -0.7531 -40.938 0
      CHANNELS 3 Zrotation Xrotation Yrotation
      JOINT RightAnkle
      {
        OFFSET 0 -40.1986 0
        CHANNELS 3 Zrotation Xrotation Yrotation
        JOINT RightToe
        {
          OFFSET 0 -4.4182 9.239
          CHANNELS 3 Zrotation Xrotation Yrotation
          End Site
          {
            OFFSET 0 0 6.1981
          }
        }
      }
    }
  }
  JOINT LeftHip
  {
    OFFSET 9.4119 3.9773 -0.7758
    CHANNELS 3 Zrotation Xrotation Yrotation
    JOINT LeftKnee
    {
      OFFSET 0.7532 -40.9383 0
      CHANNELS 3 Zrotation Xrotation Yrotation
      JOINT LeftAnkle
      {
        OFFSET 0 -40.1986 0
        CHANNELS 3 Zrotation Xrotation Yrotation
        JOINT LeftToe
        {
          OFFSET 0 -4.4182 9.239
          CHANNELS 3 Zrotation Xrotation Yrotation
          End Site
          {
            OFFSET 0 0 6.1981
          }
        }
      }
    }
  }
}
MOTION
Frames:	6
Frame Time:	0.0333333
-0.46526 3.28041 8.68423 4.40631e-007 -26.0015 7.85957e-007 0.914916 9.82665 5.73319 0.830051 19.6951 11.5668 0.830052 19.6951 11.5668 -0.946045 -0.271278 -0.00766591 -0.596123 -6.87335 11.3201 -4.46381e-005 -0.000301784 -12.4658 98.6302 -35.6817 26.8506 -2.59101 -13.7546 -0.759475 0.0275448 -0.0772218 0.294336 1.04398e-005 -5.27087e-006 -6.90361e-006 -9.26983e-007 2.91429e-006 -1.4338e-006 -2.18706e-007 -6.97443e-007 -1.89391e-006 1.04398e-005 -5.27087e-006 -6.90361e-006 -0.0127971 0.00232585 8.65748e-005 1.88845e-015 2.61105e-008 -1.59028e-015 1.04398e-005 -5.27087e-006 -6.90361e-006 -0.0160741 0.00300333 0.000859004 -6.95746e-016 -1.90833e-014 1.98785e-016 1.04398e-005 -5.27087e-006 -6.90361e-006 -0.0126353 0.00312972 0.00283691 1.19271e-015 3.18055e-015 1.09332e-015 1.04398e-005 -5.27087e-006 -6.90361e-006 -9.26983e-007 2.91429e-006 -1.4338e-006 -2.18706e-007 -6.97443e-007 -1.89391e-006 -0.865691 0.165517 7.03842 -86.5274 -48.3903 -50.0402 42.7074 -66.5683 29.5343 -0.000503624 0.000140592 -2.19825e-005 2.4396e-006 -4.58827e-006 1.89263e-006 -3.3221e-006 7.20247e-006 2.82998e-006 2.4396e-006 -5.65845e-006 1.89263e-006 2.4396e-006 -4.58827e-006 1.89263e-006 0.0129722 0.00232827 -8.64949e-005 6.36111e-015 -6.36111e-015 6.36111e-015 2.4396e-006 -4.58827e-006 1.89263e-006 0.0163739 0.00304981 -0.000876252 -3.18055e-015 -6.48073e-007 -3.18055e-015 2.4396e-006 -4.58827e-006 1.89263e-006 0.0145566 0.0036713 -0.00326093 1.06e-006 4.92579e-007 9.56446e-006 2.4396e-006 -4.58827e-006 1.89263e-006 -3.3221e-006 7.20247e-006 2.82998e-006 2.4396e-006 -5.65845e-006 1.89263e-006 -43.4824 -71.327 -42.9355 0.247902 35.2732 -1.27374 -3.39091 24.3833 -0.021317 -2.33765e-006 -7.34638e-006 -1.87605e-006 -163.901 -76.5418 -157.033 -179.927 44.252 -175.525 3.16933 -12.0412 3.3517 2.3697e-022 0 7.58303e-022 
-0.466592 3.285 8.68459 1.01405e-007 -26.0015 4.78643e-007 0.914915 9.82665 5.73319 0.830054 19.6951 11.5668 0.830053 19.6951 11.5668 -0.946041 -0.271263 -0.00765762 -0.586418 -6.95266 11.5115 -4.40073e-005 -0.000296735 -12.4656 98.6302 -35.6817 26.8506 -2.59101 -13.7546 -0.759486 0.0276361 -0.0774911 0.295229 -2.78299e-015 3.18055e-015 2.18663e-015 -3.47873e-015 3.18055e-015 7.95139e-016 -3.37934e-015 0 1.88845e-015 -2.78299e-015 3.18055e-015 2.18663e-015 -0.012767 0.00232043 8.73753e-005 -8.84592e-015 -1.90833e-014 5.76476e-015 -2.78299e-015 3.18055e-015 2.18663e-015 -0.0160749 0.00300829 0.000855258 -3.97569e-016 0 6.95746e-016 -2.78299e-015 3.18055e-015 2.18663e-015 -0.012595 0.00312491 0.00282702 1.68967e-015 -6.36111e-015 -1.78906e-015 -2.78299e-015 3.18055e-015 2.18663e-015 -3.47873e-015 3.18055e-015 7.95139e-016 -3.37934e-015 0 1.88845e-015 -0.865688 0.165528 7.03842 -86.2641 -48.8322 -50.4021 41.1138 -65.8912 27.9724 -0.000525037 0.000191407 -4.03267e-005 1.27222e-014 -3.18055e-015 -3.18055e-015 1.8927e-006 4.14253e-007 -2.26527e-006 3.18055e-015 6.36111e-015 -3.18055e-015 1.27222e-014 -3.18055e-015 -3.18055e-015 0.0129686 0.00232456 -9.14947e-005 0 6.36111e-015 -0 1.27222e-014 -3.18055e-015 -3.18055e-015 0.016316 0.0030312 -0.00087683 0 0 -6.36111e-015 1.27222e-014 -3.18055e-015 -3.18055e-015 0.0144725 0.0036541 -0.00324266 -6.36111e-015 0 -6.36111e-015 1.27222e-014 -3.18055e-015 -3.18055e-015 1.8927e-006 4.14253e-007 -2.26527e-006 3.18055e-015 6.36111e-015 -3.18055e-015 -42.9137 -71.1251 -42.3018 0.237264 34.4019 -1.25408 -3.39591 24.6589 -0.00447885 2.09839e-006 2.52329e-006 2.53685e-006 -163.895 -76.5495 -157.029 -179.927 44.2531 -175.527 3.16852 -12.0476 3.3507 4.26546e-022 -1.59028e-015 -0 
-0.467882 3.28954 8.68493 4.10972e-007 -26.0015 8.25105e-007 0.914916 9.82665 5.73319 0.830053 19.6951 11.5668 0.830053 19.6951 11.5668 -0.946041 -0.271263 -0.00765882 -0.57645 -7.03191 11.703 -4.20579e-005 -0.000287588 -12.4655 98.6302 -35.6817 26.8506 -2.59102 -13.7546 -0.759481 0.027733 -0.0777215 0.296117 -8.94531e-016 6.36111e-015 -4.96962e-016 -1.09332e-015 -3.18055e-015 -6.95746e-016 7.95139e-016 3.18055e-015 -1.98785e-016 -8.94531e-016 6.36111e-015 -4.96962e-016 -0.0128097 0.00232921 8.85438e-005 -4.89606e-007 -8.39344e-007 2.354e-006 -8.94531e-016 6.36111e-015 -4.96962e-016 -0.0159872 0.00297971 0.000853516 1.98785e-015 0 -8.94531e-016 -8.94531e-016 6.36111e-015 -4.96962e-016 -0.0125586 0.00311111 0.00281965 -9.94863e-006 7.17008e-006 4.54842e-006 -8.94531e-016 6.36111e-015 -4.96962e-016 -1.09332e-015 -3.18055e-015 -6.95746e-016 7.95139e-016 3.18055e-015 -1.98785e-016 -0.865684 0.165525 7.03841 -86.0022 -49.2746 -50.7635 39.604 -65.1995 26.4944 -0.000561244 0.000246192 -6.62142e-005 9.69231e-007 1.4692e-006 2.48768e-006 -9.69231e-007 -1.4692e-006 -2.48768e-006 9.69231e-007 1.4692e-006 2.48768e-006 9.69231e-007 1.4692e-006 2.48768e-006 0.012983 0.0023207 -8.57598e-005 -1.27222e-014 -3.18055e-015 1.59028e-014 9.69231e-007 1.4692e-006 2.48768e-006 0.0163667 0.00303639 -0.000874736 -6.36111e-015 -3.18055e-015 9.54166e-015 9.69231e-007 1.4692e-006 2.48768e-006 0.0146192 0.00368559 -0.00326928 -4.33007e-006 3.40916e-006 -6.14438e-006 9.69231e-007 1.4692e-006 2.48768e-006 -9.69231e-007 -1.4692e-006 -2.48768e-006 9.69231e-007 1.4692e-006 2.48768e-006 -42.3547 -70.9228 -41.6788 0.222374 33.5361 -1.23226 -3.39861 24.9343 0.0116797 7.01845e-007 -1.94717e-007 3.82608e-006 -163.889 -76.558 -157.025 -179.927 44.255 -175.528 3.1677 -12.0541 3.3497 3.54593e-014 4.25264e-007 4.05564e-013 
-0.46913 3.29401 8.68526 3.33859e-007 -26.0015 5.11448e-007 0.914916 9.82665 5.73319 0.830054 19.6951 11.5668 0.830053 19.6951 11.5668 -0.946041 -0.271262 -0.00765761 -0.566211 -7.11112 11.8944 -4.23981e-005 -0.000287023 -12.4654 98.6302 -35.6817 26.8506 -2.591 -13.7546 -0.759487 0.0277976 -0.0779187 0.297017 -7.95139e-016 -3.18055e-015 1.68967e-015 -7.95139e-016 9.54166e-015 1.59028e-015 -9.93923e-016 6.36111e-015 2.38542e-015 -7.95139e-016 -3.18055e-015 1.68967e-015 -0.0127923 0.00232076 8.1318e-005 1.68967e-015 -3.18055e-015 1.98785e-016 -7.95139e-016 -3.18055e-015 1.68967e-015 -0.0160364 0.00298788 0.000852926 -1.09332e-015 -9.54166e-015 -2.18663e-015 -7.95139e-016 -3.18055e-015 1.68967e-015 -0.0125859 0.0031137 0.00282133 -2.5842e-015 -3.18055e-015 -1.98785e-016 -7.95139e-016 -3.18055e-015 1.68967e-015 -7.95139e-016 9.54166e-015 1.59028e-015 -9.93923e-016 6.36111e-015 2.38542e-015 -0.865689 0.165529 7.03842 -85.7423 -49.7179 -51.1249 38.1793 -64.4921 25.1015 -0.000522439 0.000279807 -5.17154e-005 9.54166e-015 3.18055e-015 -9.54166e-015 9.54166e-015 0 -0 3.18055e-015 -3.18055e-015 3.18055e-015 9.54166e-015 3.18055e-015 -9.54166e-015 0.0129892 0.00232289 -9.33859e-005 5.20308e-006 2.21811e-007 8.66244e-006 9.54166e-015 3.18055e-015 -9.54166e-015 0.0163397 0.0030441 -0.000878813 5.29669e-031 3.18055e-015 -9.54166e-015 9.54166e-015 3.18055e-015 -9.54166e-015 0.0145792 0.00368595 -0.00327106 3.18055e-015 0 -3.18055e-015 9.54166e-015 3.18055e-015 -9.54166e-015 9.54166e-015 0 -0 3.18055e-015 -3.18055e-015 3.18055e-015 -41.8038 -70.7194 -41.0647 0.203931 32.6748 -1.20898 -3.39942 25.2096 0.0273202 -2.21073e-006 -4.02301e-007 7.9924e-007 -163.881 -76.5668 -157.021 -179.927 44.2574 -175.53 3.16692 -12.0604 3.34876 2.25121e-022 0 -0 
-0.470337 3.29841 8.68558 4.10972e-007 -26.0015 8.25105e-007 0.914916 9.82665 5.73319 0.830053 19.6951 11.5668 0.830053 19.6951 11.5668 -0.946041 -0.271263 -0.00765882 -0.55571 -7.19025 12.0858 -4.15593e-005 -0.000290263 -12.4653 98.6302 -35.6817 26.8505 -2.59099 -13.7546 -0.759473 0.0278916 -0.0781854 0.297907 1.17698e-005 -4.02262e-006 -3.57397e-006 6.95746e-016 6.36111e-015 -2.98177e-016 -1.17698e-005 4.02262e-006 3.57397e-006 1.17698e-005 -4.02262e-006 -3.57397e-006 -0.012797 0.00232758 8.43388e-005 9.93923e-017 0 -1.98785e-016 1.17698e-005 -4.02262e-006 -3.57397e-006 -0.0160556 0.00299841 0.000853102 -1.0885e-005 4.0239e-006 7.13183e-006 1.17698e-005 -4.02262e-006 -3.57397e-006 -0.012498 0.00309597 0.00280518 2.98177e-016 9.54166e-015 2.98177e-016 1.17698e-005 -4.02262e-006 -3.57397e-006 6.95746e-016 6.36111e-015 -2.98177e-016 -1.17698e-005 4.02262e-006 3.57397e-006 -0.865684 0.165525 7.03841 -85.4845 -50.1618 -51.4861 36.8292 -63.7721 23.7834 -0.000556121 0.000281545 -6.93777e-005 2.59278e-006 -8.7918e-007 7.15295e-007 -1.41468e-006 -3.73099e-006 5.01852e-006 -4.2236e-006 4.20832e-007 1.12319e-006 2.59278e-006 -8.7918e-007 7.15295e-007 0.012927 0.00231526 -8.56492e-005 9.62972e-006 -3.73369e-006 3.4878e-006 2.59278e-006 -8.7918e-007 7.15295e-007 0.0163196 0.00302674 -0.000867412 -5.18669e-006 -3.89541e-007 -1.4308e-006 2.59278e-006 -8.7918e-007 7.15295e-007 0.0145857 0.00367778 -0.00325931 -9.61284e-007 -5.69651e-007 -2.55396e-006 2.59278e-006 -8.7918e-007 7.15295e-007 -1.41468e-006 -3.73099e-006 5.01852e-006 -4.2236e-006 4.20832e-007 1.12319e-006 -41.2589 -70.5149 -40.4575 0.182341 31.8176 -1.18491 -3.3989 25.4847 0.0425651 -7.75259e-007 -1.36787e-007 7.31161e-007 -163.874 -76.5764 -157.015 -179.927 44.2607 -175.531 3.16617 -12.0666 3.34783 8.76788e-022 4.25265e-007 3.79152e-022 
-0.4715 3.30273 8.6859 5.25541e-008 -26.0015 4.2518e-007 0.914915 9.82665 5.73319 0.830054 19.6951 11.5668 0.830053 19.6951 11.5668 -0.946041 -0.271263 -0.00765762 -0.544939 -7.26935 12.2773 -4.34482e-005 -0.000295046 -12.4652 98.6302 -35.6817 26.8506 -2.59101 -13.7546 -0.759482 0.0279934 -0.0784139 0.298797 2.78299e-015 0 -9.93923e-017 -9.93923e-017 0 -3.97569e-016 -6.95746e-016 6.36111e-015 1.39149e-015 2.78299e-015 0 -9.93923e-017 -0.0128262 0.00232384 8.52703e-005 -1.31198e-014 -3.18055e-015 6.4605e-015 2.78299e-015 0 -9.93923e-017 -0.0160765 0.0029902 0.000860803 -1.19271e-015 1.27222e-014 1.09332e-015 2.78299e-015 0 -9.93923e-017 -0.0126094 0.00312718 0.00282641 -6.95746e-016 3.18055e-015 -9.93923e-017 2.78299e-015 0 -9.93923e-017 -9.93923e-017 0 -3.97569e-016 -6.95746e-016 6.36111e-015 1.39149e-015 -0.865688 0.165528 7.03842 -85.2301 -50.6075 -51.8483 35.551 -63.0383 22.5373 -0.000528241 0.000256244 -3.29266e-005 3.71785e-006 -2.32723e-006 9.43661e-006 2.56661e-006 -4.09921e-006 7.14623e-007 -1.04899e-005 6.37083e-006 1.35906e-006 3.71785e-006 -2.32723e-006 9.43661e-006 0.0129027 0.00230484 -9.78498e-005 1.57038e-005 1.09481e-005 1.1333e-005 3.71785e-006 -2.32723e-006 9.43661e-006 0.0163341 0.00304181 -0.00089109 -0 0 1.59028e-014 3.71785e-006 -2.32723e-006 9.43661e-006 0.0145416 0.00367463 -0.00325681 -2.03931e-006 -1.52503e-006 2.11225e-006 3.71785e-006 -2.32723e-006 9.43661e-006 2.56661e-006 -4.09921e-006 7.14623e-007 -1.04899e-005 6.37083e-006 1.35906e-006 -40.7229 -70.3087 -39.8598 0.159106 30.9647 -1.16058 -3.39743 25.7598 0.0575438 -1.28472e-006 4.86469e-006 -5.37425e-008 -163.865 -76.5865 -157.008 -179.927 44.2646 -175.533 3.16545 -12.0726 3.34694 3.87835e-013 4.25265e-007 -2.38239e-013 
